<mxfile host="65bd71144e">
    <diagram id="F4P-IcZIlHojT8ZcErb4" name="Page-1">
        <mxGraphModel dx="901" dy="744" grid="1" gridSize="10" guides="1" tooltips="1" connect="1" arrows="1" fold="1" page="1" pageScale="1" pageWidth="827" pageHeight="1169" math="0" shadow="0">
            <root>
                <mxCell id="0"/>
                <mxCell id="1" parent="0"/>
                <mxCell id="8" style="edgeStyle=none;html=1;exitX=0.25;exitY=1;exitDx=0;exitDy=0;entryX=0.442;entryY=0;entryDx=0;entryDy=0;entryPerimeter=0;" edge="1" parent="1" source="2" target="3">
                    <mxGeometry relative="1" as="geometry"/>
                </mxCell>
                <mxCell id="9" style="edgeStyle=none;html=1;exitX=0.5;exitY=1;exitDx=0;exitDy=0;" edge="1" parent="1" source="2" target="6">
                    <mxGeometry relative="1" as="geometry"/>
                </mxCell>
                <mxCell id="10" style="edgeStyle=none;html=1;exitX=0.75;exitY=1;exitDx=0;exitDy=0;entryX=0.5;entryY=0;entryDx=0;entryDy=0;" edge="1" parent="1" source="2" target="7">
                    <mxGeometry relative="1" as="geometry"/>
                </mxCell>
                <mxCell id="2" value="App" style="rounded=0;whiteSpace=wrap;html=1;" vertex="1" parent="1">
                    <mxGeometry x="340" y="110" width="120" height="60" as="geometry"/>
                </mxCell>
                <mxCell id="3" value="BlogPost" style="rounded=1;whiteSpace=wrap;html=1;" vertex="1" parent="1">
                    <mxGeometry x="110" y="470" width="120" height="210" as="geometry"/>
                </mxCell>
                <mxCell id="5" value="Comment" style="rounded=1;whiteSpace=wrap;html=1;" vertex="1" parent="1">
                    <mxGeometry x="340" y="820" width="120" height="210" as="geometry"/>
                </mxCell>
                <mxCell id="6" value="CommentList" style="rounded=1;whiteSpace=wrap;html=1;" vertex="1" parent="1">
                    <mxGeometry x="340" y="470" width="120" height="210" as="geometry"/>
                </mxCell>
                <mxCell id="7" value="CommentForm" style="rounded=1;whiteSpace=wrap;html=1;" vertex="1" parent="1">
                    <mxGeometry x="570" y="470" width="120" height="210" as="geometry"/>
                </mxCell>
                <mxCell id="11" value="State:&lt;br&gt;setAuthor&lt;br&gt;setContent" style="ellipse;whiteSpace=wrap;html=1;aspect=fixed;" vertex="1" parent="1">
                    <mxGeometry x="700" y="310" width="100" height="100" as="geometry"/>
                </mxCell>
                <mxCell id="12" value="state: setCommentsList" style="ellipse;whiteSpace=wrap;html=1;aspect=fixed;" vertex="1" parent="1">
                    <mxGeometry x="480" y="120" width="100" height="100" as="geometry"/>
                </mxCell>
                <mxCell id="13" value="Props:&lt;br&gt;blog - object containing blog post info" style="ellipse;whiteSpace=wrap;html=1;aspect=fixed;" vertex="1" parent="1">
                    <mxGeometry x="10" y="350" width="120" height="120" as="geometry"/>
                </mxCell>
                <mxCell id="14" value="Props:&lt;br&gt;author - string&lt;br&gt;content - string" style="ellipse;whiteSpace=wrap;html=1;aspect=fixed;" vertex="1" parent="1">
                    <mxGeometry x="460" y="780" width="120" height="120" as="geometry"/>
                </mxCell>
                <mxCell id="15" value="Props:&lt;br&gt;Comments - an array of objects (of each comment)" style="ellipse;whiteSpace=wrap;html=1;aspect=fixed;" vertex="1" parent="1">
                    <mxGeometry x="410" y="350" width="120" height="120" as="geometry"/>
                </mxCell>
                <mxCell id="16" value="Props:&lt;br&gt;onSubmit - function that will update comment list." style="ellipse;whiteSpace=wrap;html=1;aspect=fixed;" vertex="1" parent="1">
                    <mxGeometry x="700" y="420" width="120" height="120" as="geometry"/>
                </mxCell>
            </root>
        </mxGraphModel>
    </diagram>
</mxfile>